<svg xmlns="http://www.w3.org/2000/svg" width="23" height="18" viewBox="0 0 23 18" fill="none">
<path d="M19.187 7C19.187 7.55228 18.7393 8 18.187 8C17.6347 8 17.187 7.55228 17.187 7C17.187 6.44772 17.6347 6 18.187 6C18.7393 6 19.187 6.44772 19.187 7Z" fill="#9564AA"/>
<path fill-rule="evenodd" clip-rule="evenodd" d="M6.18701 10C6.18701 12.7614 8.42559 15 11.187 15C13.9484 15 16.187 12.7614 16.187 10C16.187 7.23858 13.9484 5 11.187 5C8.42559 5 6.18701 7.23858 6.18701 10ZM14.187 10C14.187 11.6569 12.8439 13 11.187 13C9.53016 13 8.18701 11.6569 8.18701 10C8.18701 8.34315 9.53016 7 11.187 7C12.8439 7 14.187 8.34315 14.187 10Z" fill="#9564AA"/>
<path fill-rule="evenodd" clip-rule="evenodd" d="M6.12403 2.84538C6.19488 2.74688 6.27357 2.62631 6.37391 2.46372C6.41056 2.40433 6.5105 2.23944 6.58493 2.11665L6.66881 1.97841C7.4978 0.622387 8.10041 0 9.18701 0H13.187C14.2736 0 14.8762 0.622387 15.7052 1.97841L15.7891 2.11664C15.8635 2.23943 15.9635 2.40433 16.0001 2.46372C16.1005 2.62631 16.1791 2.74688 16.25 2.84538C16.2967 2.91033 16.3375 2.96194 16.3708 3H19.187C20.8439 3 22.187 4.34315 22.187 6V15C22.187 16.6569 20.8439 18 19.187 18H3.18701C1.53016 18 0.187012 16.6569 0.187012 15V6C0.187012 4.34315 1.53016 3 3.18701 3H6.00321C6.0365 2.96194 6.07731 2.91033 6.12403 2.84538ZM3.18701 5C2.63473 5 2.18701 5.44772 2.18701 6V15C2.18701 15.5523 2.63473 16 3.18701 16H19.187C19.7393 16 20.187 15.5523 20.187 15V6C20.187 5.44772 19.7393 5 19.187 5H16.187C15.5227 5 15.0746 4.63641 14.6264 4.01326C14.5233 3.86988 14.4211 3.71332 14.2981 3.51409C14.256 3.44583 14.1466 3.26536 14.0716 3.14152L13.9988 3.02159C13.5465 2.28172 13.2737 2 13.187 2H9.18701C9.10028 2 8.82751 2.28172 8.37521 3.02159L8.30244 3.14152C8.2274 3.26534 8.11793 3.44596 8.07588 3.51409C7.95293 3.71332 7.85076 3.86988 7.74763 4.01326C7.29938 4.63641 6.85135 5 6.18701 5H3.18701Z" fill="#9564AA"/>
</svg>